<mxfile host="app.diagrams.net" modified="2021-01-13T12:53:31.939Z" agent="5.0 (Macintosh)" etag="AscSGGgnTkqWa0AN4yTH" version="14.1.9" type="github">
  <diagram id="C5RBs43oDa-KdzZeNtuy" name="Page-1">
    <mxGraphModel dx="1426" dy="951" grid="1" gridSize="10" guides="1" tooltips="1" connect="1" arrows="1" fold="1" page="1" pageScale="1" pageWidth="827" pageHeight="1169" math="0" shadow="0">
      <root>
        <mxCell id="WIyWlLk6GJQsqaUBKTNV-0" />
        <mxCell id="WIyWlLk6GJQsqaUBKTNV-1" parent="WIyWlLk6GJQsqaUBKTNV-0" />
        <mxCell id="WIyWlLk6GJQsqaUBKTNV-2" value="" style="rounded=0;html=1;jettySize=auto;orthogonalLoop=1;fontSize=11;endArrow=block;endFill=0;endSize=8;strokeWidth=1;shadow=0;labelBackgroundColor=none;edgeStyle=orthogonalEdgeStyle;" parent="WIyWlLk6GJQsqaUBKTNV-1" source="WIyWlLk6GJQsqaUBKTNV-3" target="WIyWlLk6GJQsqaUBKTNV-6" edge="1">
          <mxGeometry relative="1" as="geometry" />
        </mxCell>
        <mxCell id="WIyWlLk6GJQsqaUBKTNV-3" value="Request From Customer" style="rounded=1;whiteSpace=wrap;html=1;fontSize=12;glass=0;strokeWidth=1;shadow=0;" parent="WIyWlLk6GJQsqaUBKTNV-1" vertex="1">
          <mxGeometry x="160" y="80" width="120" height="40" as="geometry" />
        </mxCell>
        <mxCell id="WIyWlLk6GJQsqaUBKTNV-5" value="No" style="edgeStyle=orthogonalEdgeStyle;rounded=0;html=1;jettySize=auto;orthogonalLoop=1;fontSize=11;endArrow=block;endFill=0;endSize=8;strokeWidth=1;shadow=0;labelBackgroundColor=none;" parent="WIyWlLk6GJQsqaUBKTNV-1" source="WIyWlLk6GJQsqaUBKTNV-6" target="WIyWlLk6GJQsqaUBKTNV-7" edge="1">
          <mxGeometry y="10" relative="1" as="geometry">
            <mxPoint as="offset" />
          </mxGeometry>
        </mxCell>
        <mxCell id="hfCqFCgJfre9zSI_NOwN-0" value="Yes, Existing Service" style="edgeStyle=orthogonalEdgeStyle;rounded=0;orthogonalLoop=1;jettySize=auto;html=1;exitX=0.5;exitY=1;exitDx=0;exitDy=0;entryX=0.5;entryY=0;entryDx=0;entryDy=0;" edge="1" parent="WIyWlLk6GJQsqaUBKTNV-1" source="WIyWlLk6GJQsqaUBKTNV-6" target="WIyWlLk6GJQsqaUBKTNV-12">
          <mxGeometry relative="1" as="geometry" />
        </mxCell>
        <mxCell id="WIyWlLk6GJQsqaUBKTNV-6" value="&lt;div&gt;Existing &lt;br&gt;&lt;/div&gt;&lt;div&gt;Service or Resource&lt;/div&gt;" style="rhombus;whiteSpace=wrap;html=1;shadow=0;fontFamily=Helvetica;fontSize=12;align=center;strokeWidth=1;spacing=6;spacingTop=-4;" parent="WIyWlLk6GJQsqaUBKTNV-1" vertex="1">
          <mxGeometry x="170" y="170" width="100" height="80" as="geometry" />
        </mxCell>
        <mxCell id="hfCqFCgJfre9zSI_NOwN-2" value="" style="edgeStyle=orthogonalEdgeStyle;rounded=0;orthogonalLoop=1;jettySize=auto;html=1;fillColor=#ffe6cc;strokeColor=#009900;" edge="1" parent="WIyWlLk6GJQsqaUBKTNV-1" source="WIyWlLk6GJQsqaUBKTNV-7" target="hfCqFCgJfre9zSI_NOwN-1">
          <mxGeometry relative="1" as="geometry" />
        </mxCell>
        <mxCell id="WIyWlLk6GJQsqaUBKTNV-7" value="Project Management Team" style="rounded=1;whiteSpace=wrap;html=1;fontSize=12;glass=0;strokeWidth=1;shadow=0;fillColor=#e1d5e7;strokeColor=#9673a6;fontStyle=1" parent="WIyWlLk6GJQsqaUBKTNV-1" vertex="1">
          <mxGeometry x="337" y="190" width="120" height="40" as="geometry" />
        </mxCell>
        <mxCell id="hfCqFCgJfre9zSI_NOwN-26" value="" style="edgeStyle=orthogonalEdgeStyle;rounded=0;orthogonalLoop=1;jettySize=auto;html=1;strokeColor=#009900;" edge="1" parent="WIyWlLk6GJQsqaUBKTNV-1" source="WIyWlLk6GJQsqaUBKTNV-12" target="hfCqFCgJfre9zSI_NOwN-25">
          <mxGeometry relative="1" as="geometry" />
        </mxCell>
        <mxCell id="WIyWlLk6GJQsqaUBKTNV-12" value="&lt;div&gt;Operations&lt;/div&gt;&lt;div&gt;Team&lt;br&gt;&lt;/div&gt;" style="rounded=1;whiteSpace=wrap;html=1;fontSize=12;glass=0;strokeWidth=1;shadow=0;fontStyle=1;fillColor=#e1d5e7;strokeColor=#9673a6;" parent="WIyWlLk6GJQsqaUBKTNV-1" vertex="1">
          <mxGeometry x="160" y="850" width="120" height="40" as="geometry" />
        </mxCell>
        <mxCell id="hfCqFCgJfre9zSI_NOwN-4" value="Allocate to Lead" style="edgeStyle=orthogonalEdgeStyle;rounded=0;orthogonalLoop=1;jettySize=auto;html=1;fillColor=#ffe6cc;strokeColor=#009900;" edge="1" parent="WIyWlLk6GJQsqaUBKTNV-1" source="hfCqFCgJfre9zSI_NOwN-1" target="hfCqFCgJfre9zSI_NOwN-3">
          <mxGeometry relative="1" as="geometry" />
        </mxCell>
        <mxCell id="hfCqFCgJfre9zSI_NOwN-1" value="Define User Story and Acceptance Criteria" style="whiteSpace=wrap;html=1;rounded=1;shadow=0;strokeWidth=1;glass=0;fillColor=#ffe6cc;strokeColor=#d79b00;" vertex="1" parent="WIyWlLk6GJQsqaUBKTNV-1">
          <mxGeometry x="537" y="180" width="120" height="60" as="geometry" />
        </mxCell>
        <mxCell id="hfCqFCgJfre9zSI_NOwN-6" value="Submit for Approval" style="edgeStyle=orthogonalEdgeStyle;rounded=0;orthogonalLoop=1;jettySize=auto;html=1;fillColor=#ffe6cc;strokeColor=#009900;" edge="1" parent="WIyWlLk6GJQsqaUBKTNV-1" source="hfCqFCgJfre9zSI_NOwN-3">
          <mxGeometry relative="1" as="geometry">
            <mxPoint x="597" y="460" as="targetPoint" />
          </mxGeometry>
        </mxCell>
        <mxCell id="hfCqFCgJfre9zSI_NOwN-3" value="Plan the Requirements and Effort" style="whiteSpace=wrap;html=1;rounded=1;shadow=0;strokeWidth=1;glass=0;fillColor=#ffe6cc;strokeColor=#d79b00;" vertex="1" parent="WIyWlLk6GJQsqaUBKTNV-1">
          <mxGeometry x="537" y="320" width="120" height="60" as="geometry" />
        </mxCell>
        <mxCell id="hfCqFCgJfre9zSI_NOwN-11" value="&lt;div&gt;Adjust plan&lt;/div&gt;&lt;div&gt;from&lt;/div&gt;&lt;div&gt;Feedback&lt;/div&gt;" style="edgeStyle=orthogonalEdgeStyle;rounded=0;orthogonalLoop=1;jettySize=auto;html=1;entryX=1;entryY=0.5;entryDx=0;entryDy=0;exitX=1;exitY=0.5;exitDx=0;exitDy=0;fillColor=#ffe6cc;strokeColor=#FF0000;" edge="1" parent="WIyWlLk6GJQsqaUBKTNV-1" source="hfCqFCgJfre9zSI_NOwN-7" target="hfCqFCgJfre9zSI_NOwN-3">
          <mxGeometry relative="1" as="geometry">
            <mxPoint x="697" y="500" as="targetPoint" />
            <Array as="points">
              <mxPoint x="717" y="500" />
              <mxPoint x="717" y="350" />
            </Array>
          </mxGeometry>
        </mxCell>
        <mxCell id="hfCqFCgJfre9zSI_NOwN-13" value="Schedule" style="edgeStyle=orthogonalEdgeStyle;rounded=0;orthogonalLoop=1;jettySize=auto;html=1;fillColor=#ffe6cc;strokeColor=#009900;" edge="1" parent="WIyWlLk6GJQsqaUBKTNV-1" source="hfCqFCgJfre9zSI_NOwN-7" target="hfCqFCgJfre9zSI_NOwN-12">
          <mxGeometry relative="1" as="geometry" />
        </mxCell>
        <mxCell id="hfCqFCgJfre9zSI_NOwN-7" value="Approved" style="rhombus;whiteSpace=wrap;html=1;fillColor=#ffe6cc;strokeColor=#d79b00;" vertex="1" parent="WIyWlLk6GJQsqaUBKTNV-1">
          <mxGeometry x="557" y="460" width="80" height="80" as="geometry" />
        </mxCell>
        <mxCell id="hfCqFCgJfre9zSI_NOwN-17" value="" style="edgeStyle=orthogonalEdgeStyle;rounded=0;orthogonalLoop=1;jettySize=auto;html=1;fillColor=#ffe6cc;strokeColor=#009900;" edge="1" parent="WIyWlLk6GJQsqaUBKTNV-1" source="hfCqFCgJfre9zSI_NOwN-12" target="hfCqFCgJfre9zSI_NOwN-16">
          <mxGeometry relative="1" as="geometry" />
        </mxCell>
        <mxCell id="hfCqFCgJfre9zSI_NOwN-12" value="Implement Feature" style="whiteSpace=wrap;html=1;fillColor=#ffe6cc;strokeColor=#d79b00;" vertex="1" parent="WIyWlLk6GJQsqaUBKTNV-1">
          <mxGeometry x="537" y="630" width="120" height="60" as="geometry" />
        </mxCell>
        <mxCell id="hfCqFCgJfre9zSI_NOwN-19" value="&lt;div&gt;Review&lt;/div&gt;&lt;div&gt;Failure&lt;br&gt;&lt;/div&gt;" style="edgeStyle=orthogonalEdgeStyle;rounded=0;orthogonalLoop=1;jettySize=auto;html=1;entryX=1;entryY=0.5;entryDx=0;entryDy=0;exitX=1;exitY=0.5;exitDx=0;exitDy=0;fillColor=#ffe6cc;strokeColor=#FF0000;" edge="1" parent="WIyWlLk6GJQsqaUBKTNV-1" source="hfCqFCgJfre9zSI_NOwN-16" target="hfCqFCgJfre9zSI_NOwN-12">
          <mxGeometry relative="1" as="geometry">
            <mxPoint x="697" y="800" as="targetPoint" />
            <Array as="points">
              <mxPoint x="717" y="800" />
              <mxPoint x="717" y="660" />
            </Array>
          </mxGeometry>
        </mxCell>
        <mxCell id="hfCqFCgJfre9zSI_NOwN-21" value="" style="edgeStyle=orthogonalEdgeStyle;rounded=0;orthogonalLoop=1;jettySize=auto;html=1;fillColor=#ffe6cc;strokeColor=#009900;" edge="1" parent="WIyWlLk6GJQsqaUBKTNV-1" source="hfCqFCgJfre9zSI_NOwN-16" target="hfCqFCgJfre9zSI_NOwN-20">
          <mxGeometry relative="1" as="geometry" />
        </mxCell>
        <mxCell id="hfCqFCgJfre9zSI_NOwN-16" value="Acceptance Criteria Review" style="rhombus;whiteSpace=wrap;html=1;fillColor=#ffe6cc;strokeColor=#d79b00;" vertex="1" parent="WIyWlLk6GJQsqaUBKTNV-1">
          <mxGeometry x="557" y="760" width="80" height="80" as="geometry" />
        </mxCell>
        <mxCell id="hfCqFCgJfre9zSI_NOwN-23" value="" style="edgeStyle=orthogonalEdgeStyle;rounded=0;orthogonalLoop=1;jettySize=auto;html=1;entryX=0.5;entryY=0;entryDx=0;entryDy=0;" edge="1" parent="WIyWlLk6GJQsqaUBKTNV-1" source="hfCqFCgJfre9zSI_NOwN-20" target="WIyWlLk6GJQsqaUBKTNV-12">
          <mxGeometry relative="1" as="geometry">
            <mxPoint x="420" y="690" as="targetPoint" />
          </mxGeometry>
        </mxCell>
        <mxCell id="hfCqFCgJfre9zSI_NOwN-20" value="Handover to Operations" style="whiteSpace=wrap;html=1;fillColor=#ffe6cc;strokeColor=#d79b00;" vertex="1" parent="WIyWlLk6GJQsqaUBKTNV-1">
          <mxGeometry x="352" y="770" width="120" height="60" as="geometry" />
        </mxCell>
        <mxCell id="hfCqFCgJfre9zSI_NOwN-24" value="" style="endArrow=none;dashed=1;html=1;dashPattern=1 3;strokeWidth=2;" edge="1" parent="WIyWlLk6GJQsqaUBKTNV-1">
          <mxGeometry width="50" height="50" relative="1" as="geometry">
            <mxPoint x="307" y="940" as="sourcePoint" />
            <mxPoint x="307" y="150" as="targetPoint" />
          </mxGeometry>
        </mxCell>
        <mxCell id="hfCqFCgJfre9zSI_NOwN-25" value="Operations Request Process" style="whiteSpace=wrap;html=1;rounded=1;shadow=0;strokeWidth=1;glass=0;fillColor=#d5e8d4;strokeColor=#82b366;" vertex="1" parent="WIyWlLk6GJQsqaUBKTNV-1">
          <mxGeometry x="160" y="940" width="120" height="60" as="geometry" />
        </mxCell>
      </root>
    </mxGraphModel>
  </diagram>
</mxfile>
